<?xml version="1.0" standalone="no"?>
<!DOCTYPE svg PUBLIC "-//W3C//DTD SVG 20010904//EN"
 "http://www.w3.org/TR/2001/REC-SVG-20010904/DTD/svg10.dtd">
<svg version="1.0" xmlns="http://www.w3.org/2000/svg"
 width="2500.000000pt" height="2500.000000pt" viewBox="0 0 2500.000000 2500.000000"
 preserveAspectRatio="xMidYMid meet">

<g transform="translate(0.000000,2500.000000) scale(0.100000,-0.100000)"
fill="#000000" stroke="none">
<path d="M3709 18385 c-189 -36 -340 -115 -474 -250 -102 -103 -145 -169 -186
-287 -130 -379 16 -780 395 -1084 87 -69 118 -83 141 -64 25 21 17 47 -41 145
-122 205 -184 397 -184 570 0 291 151 518 415 622 62 24 84 27 185 27 96 1
126 -3 183 -23 100 -34 201 -106 314 -226 56 -58 105 -105 110 -105 6 0 18 9
27 19 17 19 17 23 -4 88 -29 89 -99 223 -153 296 -92 121 -248 225 -391 262
-88 22 -248 27 -337 10z"/>
<path d="M5280 17843 c-308 -51 -576 -244 -700 -505 -69 -144 -84 -224 -85
-438 0 -153 4 -204 23 -298 12 -62 28 -124 34 -137 13 -30 40 -40 67 -26 16 9
20 26 26 133 14 255 59 444 136 575 56 94 151 182 256 236 246 127 507 125
755 -4 87 -46 220 -181 277 -282 97 -172 125 -283 118 -462 -4 -92 -11 -138
-31 -200 -43 -135 -142 -282 -271 -404 -72 -68 -81 -85 -60 -117 24 -36 65
-31 166 23 184 96 307 218 397 392 178 341 153 778 -61 1090 -138 201 -385
356 -658 411 -91 19 -311 26 -389 13z"/>
<path d="M2075 17613 c-170 -38 -273 -78 -392 -155 -234 -152 -390 -402 -424
-681 -49 -402 234 -828 706 -1060 50 -25 100 -48 112 -51 39 -12 199 -258 303
-466 81 -162 139 -340 185 -569 41 -204 60 -273 100 -351 36 -72 114 -151 175
-180 28 -13 49 -27 48 -31 -2 -4 -37 -37 -78 -74 -332 -296 -583 -733 -704
-1225 -64 -258 -81 -410 -80 -725 0 -301 11 -423 61 -659 197 -944 766 -1619
1558 -1848 203 -59 314 -72 595 -73 150 0 298 5 360 13 271 34 578 116 798
216 56 25 107 46 112 46 6 0 10 -37 10 -88 l0 -89 95 -52 94 -53 224 51 c124
28 228 51 231 51 17 0 4 85 -19 124 -39 67 -64 184 -75 355 -5 86 -10 491 -10
901 0 804 -2 824 -54 928 -29 58 -71 96 -142 129 -95 43 -175 48 -601 35 -213
-7 -409 -15 -435 -18 l-48 -6 0 -99 c0 -54 3 -99 8 -99 29 0 407 -52 447 -61
122 -28 207 -96 243 -192 36 -95 42 -200 42 -707 0 -526 -3 -557 -56 -663 -40
-78 -162 -194 -259 -244 -216 -111 -497 -160 -864 -150 -210 6 -304 21 -456
72 -582 195 -1008 745 -1200 1550 -65 273 -95 525 -95 805 0 513 122 972 351
1331 73 113 71 112 160 94 105 -23 363 -61 509 -77 183 -19 612 -16 770 6 341
46 648 150 838 282 75 53 77 52 163 -55 149 -183 175 -329 106 -577 -20 -72
-37 -136 -37 -142 0 -15 151 -85 161 -75 17 19 323 492 344 533 63 125 70 234
20 335 -49 102 -213 248 -403 359 -44 26 -84 56 -87 66 -10 32 -22 322 -18
455 8 277 40 454 169 937 102 386 109 425 108 633 0 146 -4 199 -22 282 -28
129 -43 174 -63 186 -20 12 -65 2 -72 -17 -3 -8 -1 -74 4 -146 12 -159 0 -317
-34 -440 -29 -104 -111 -312 -205 -522 -145 -321 -198 -505 -209 -716 -5 -107
-8 -122 -22 -117 -184 73 -355 90 -568 60 -250 -35 -369 -81 -705 -272 -206
-117 -320 -167 -468 -205 -146 -37 -328 -55 -388 -39 -35 10 -47 20 -71 63
-16 27 -50 109 -77 182 -149 411 -257 614 -441 830 -32 37 -69 82 -83 99 l-25
30 25 -5 c363 -79 479 -92 760 -85 391 10 813 80 1280 212 264 74 270 76 287
101 17 26 5 59 -25 69 -11 3 -84 -6 -163 -20 -213 -37 -585 -82 -829 -101
-267 -20 -717 -15 -848 10 -385 72 -675 229 -861 466 -57 73 -128 215 -153
309 -27 103 -29 287 -5 392 45 192 210 350 437 420 147 45 336 26 541 -56 93
-38 118 -42 137 -23 25 25 13 56 -40 100 -149 124 -289 198 -436 232 -66 15
-274 21 -327 9z m2808 -3097 c33 -8 64 -19 70 -26 9 -10 9 -12 -4 -8 -8 3 -53
14 -100 23 -46 9 -86 19 -88 21 -10 9 68 3 122 -10z m-328 -295 c121 -21 339
-84 349 -100 3 -5 -28 -30 -69 -55 -285 -178 -686 -281 -1195 -306 -215 -11
-507 -3 -517 14 -9 14 135 145 237 215 195 134 423 221 661 251 117 14 396 4
534 -19z"/>
<path d="M7203 17351 c-178 -27 -329 -51 -338 -55 -12 -4 -15 -24 -15 -95 0
-49 3 -92 8 -94 4 -3 79 -13 167 -22 176 -19 246 -39 302 -88 108 -95 146
-249 163 -655 13 -303 12 -2313 0 -2622 -17 -397 -49 -699 -107 -1008 -30
-162 -38 -137 62 -207 l50 -35 52 20 c82 31 236 58 393 69 195 14 1032 14
1355 0 415 -19 599 -17 669 4 160 50 228 157 260 411 26 205 80 756 74 761 -8
8 -180 36 -186 30 -2 -2 -28 -80 -57 -172 -86 -276 -128 -363 -225 -466 -181
-193 -410 -231 -1355 -225 l-450 3 -5 2105 c-5 2039 -6 2107 -24 2155 -43 114
-103 171 -216 206 -121 37 -217 34 -577 -20z"/>
<path d="M12950 17207 c-372 -362 -450 -440 -450 -450 0 -7 15 -30 33 -51 l33
-39 123 72 c67 40 141 81 164 92 43 19 94 24 113 11 40 -26 39 31 45 -2017 5
-1827 6 -1965 23 -2035 39 -166 107 -254 223 -290 114 -35 90 -50 407 247 157
146 286 270 286 275 0 5 -17 27 -39 50 l-38 42 -148 -90 c-139 -83 -151 -89
-204 -89 -55 0 -56 0 -76 40 -20 40 -20 65 -25 2055 -5 1880 -6 2018 -22 2066
-48 139 -150 214 -292 214 l-51 0 -105 -103z"/>
<path d="M11608 15335 c-98 -16 -241 -61 -320 -101 -407 -206 -655 -694 -684
-1344 -20 -448 126 -887 385 -1154 208 -214 429 -287 734 -241 254 38 450 149
722 408 l120 114 -31 44 c-17 24 -36 45 -41 46 -5 2 -58 -35 -119 -83 -148
-117 -210 -158 -307 -204 -85 -40 -204 -70 -280 -70 -232 0 -460 183 -602 483
-46 96 -99 264 -93 293 2 11 45 32 132 65 657 248 1067 593 1166 983 25 97 27
255 5 341 -50 197 -184 339 -379 401 -102 33 -276 41 -408 19z m115 -294 c114
-45 199 -135 243 -260 29 -82 33 -248 8 -344 -69 -267 -315 -475 -744 -630
-177 -64 -173 -64 -183 3 -12 79 -1 426 18 558 49 345 166 581 328 663 67 35
87 39 182 35 63 -2 107 -10 148 -25z"/>
<path d="M15175 15340 c-449 -69 -755 -340 -923 -821 -91 -258 -134 -654 -101
-919 44 -355 186 -677 389 -880 226 -226 499 -290 847 -199 198 52 352 153
623 408 l94 89 -34 46 c-19 25 -39 46 -44 46 -4 0 -58 -40 -120 -88 -240 -191
-363 -252 -538 -268 -98 -8 -176 7 -276 57 -208 102 -394 382 -466 701 -5 24
-2 28 42 44 354 130 585 247 798 404 267 198 424 417 470 657 65 340 -100 623
-411 708 -71 20 -265 28 -350 15z m82 -298 c171 -66 273 -229 273 -436 0 -185
-55 -317 -188 -458 -120 -126 -276 -224 -489 -309 -111 -44 -256 -90 -262 -83
-3 3 -6 123 -6 267 1 227 4 279 24 392 63 359 193 582 374 641 60 20 207 12
274 -14z"/>
<path d="M19690 13223 c-126 -19 -228 -39 -232 -46 -10 -16 -10 -109 1 -125 5
-9 52 -19 129 -28 133 -15 161 -24 210 -60 73 -56 106 -170 122 -420 14 -215
13 -2878 0 -3050 -25 -307 -81 -491 -182 -595 -94 -97 -224 -93 -322 7 -20 21
-36 41 -36 46 0 4 -8 8 -19 8 -11 0 -72 -57 -152 -141 l-133 -141 45 -42 c91
-86 244 -110 429 -66 442 106 708 559 760 1295 8 112 10 615 8 1670 l-3 1510
-23 57 c-44 109 -140 159 -298 157 -43 -1 -180 -17 -304 -36z"/>
<path d="M22360 13200 c-80 -4 -493 -8 -917 -9 l-773 -1 0 -75 0 -74 33 -5
c17 -3 74 -10 126 -16 51 -6 110 -18 130 -26 81 -34 130 -112 159 -254 13 -64
16 -231 19 -1155 3 -742 1 -1136 -7 -1260 -13 -208 -42 -451 -70 -596 -11 -56
-17 -106 -14 -110 3 -5 33 -24 67 -43 l62 -34 160 34 c88 19 168 37 177 40 17
5 18 59 20 892 l3 887 455 0 c413 0 461 -2 520 -19 36 -10 79 -21 96 -23 l31
-5 38 107 c31 85 36 112 29 133 l-9 27 -580 5 -580 5 -3 653 -2 653 492 -3
c442 -4 499 -6 548 -22 147 -48 183 -107 253 -416 l33 -145 49 3 c28 1 60 5
73 8 l24 5 -4 307 c-4 339 -10 373 -70 447 -76 91 -163 104 -568 85z"/>
<path d="M18623 12869 c-81 -72 -155 -138 -163 -146 -13 -12 -16 -76 -20 -421
l-5 -407 -175 -78 c-195 -87 -209 -97 -174 -131 13 -13 44 -16 184 -16 l169 0
4 -912 c4 -983 3 -973 56 -1076 38 -75 144 -142 223 -142 15 0 488 444 488
459 0 8 -52 81 -58 81 -2 0 -59 -33 -126 -74 -131 -80 -156 -91 -190 -82 -52
13 -51 -3 -54 904 l-3 842 263 0 c145 0 269 4 276 9 11 7 61 174 62 206 0 6
-11 23 -25 39 l-24 28 -48 -16 c-71 -24 -211 -37 -363 -34 l-135 3 2 329 c1
361 13 520 47 638 l23 77 -37 26 c-20 14 -39 25 -43 25 -3 0 -73 -59 -154
-131z"/>
<path d="M7420 11969 c-482 -58 -860 -482 -946 -1061 -21 -147 -14 -379 16
-523 95 -449 327 -772 599 -835 118 -27 306 10 476 94 361 179 635 585 711
1055 18 112 18 380 -1 501 -42 276 -133 473 -281 608 -141 129 -351 188 -574
161z m39 -254 c93 -24 162 -65 236 -139 116 -117 199 -310 236 -551 21 -136
16 -382 -9 -512 -38 -190 -114 -383 -202 -513 -54 -79 -150 -167 -217 -198
-86 -39 -185 -37 -278 6 -154 73 -283 261 -359 524 -43 149 -58 254 -63 445
-8 270 28 458 127 658 74 149 162 241 270 278 57 20 188 21 259 2z"/>
<path d="M8897 11961 c-39 -26 -457 -434 -457 -446 0 -6 13 -26 28 -44 l28
-34 121 72 c182 109 223 106 243 -15 6 -34 10 -390 10 -850 0 -765 1 -794 20
-857 42 -134 126 -213 256 -237 113 -22 248 4 375 72 189 99 396 339 543 628
31 60 60 111 65 114 5 3 11 -127 13 -297 6 -351 11 -381 83 -452 44 -44 79
-59 168 -71 l47 -7 237 236 237 235 -28 36 c-15 20 -32 36 -38 36 -6 0 -63
-32 -127 -71 -134 -83 -165 -95 -197 -75 -43 29 -44 56 -44 1045 l0 940 -37
26 c-21 14 -44 25 -52 25 -36 0 -239 -71 -245 -86 -3 -9 -6 -191 -6 -406 0
-427 -7 -510 -60 -714 -82 -316 -232 -599 -414 -780 -110 -109 -178 -147 -276
-152 -55 -3 -70 0 -100 20 -71 48 -69 23 -70 933 -1 879 -2 906 -55 1024 -29
63 -85 124 -133 142 -60 23 -110 27 -135 10z"/>
<path d="M11323 11950 c-21 -15 -130 -120 -242 -233 -219 -220 -218 -218 -166
-267 l24 -23 108 65 c123 75 169 94 206 84 51 -12 52 -28 51 -676 -1 -671 -16
-980 -60 -1219 -14 -78 -14 -84 3 -97 54 -43 61 -43 193 -12 69 16 142 33 163
39 l37 10 0 373 c0 608 28 819 151 1131 106 271 297 485 434 485 22 0 50 -7
62 -15 23 -16 49 -85 58 -155 13 -96 7 -90 85 -90 l70 0 0 33 c0 17 7 146 15
286 8 139 12 257 9 262 -17 27 -209 53 -284 38 -197 -40 -383 -251 -540 -611
-24 -54 -47 -98 -51 -98 -5 0 -9 101 -9 225 0 280 -15 360 -82 422 -31 29
-103 59 -155 66 -36 4 -49 1 -80 -23z"/>
<path d="M13013 11950 c-21 -15 -132 -122 -246 -237 l-208 -209 34 -39 34 -39
109 66 c168 101 220 111 243 47 14 -42 15 -1191 1 -1419 -9 -145 -41 -428 -56
-500 -4 -20 2 -30 32 -50 20 -13 46 -23 58 -22 21 1 199 42 278 63 l36 9 5
428 c5 463 10 522 66 737 128 490 411 882 649 902 78 6 119 -16 152 -82 l25
-50 3 -555 c4 -681 -16 -1115 -62 -1338 l-13 -63 42 -29 41 -28 145 33 c79 19
154 37 167 40 l22 5 0 400 c0 448 8 540 64 763 123 487 406 884 644 904 78 6
119 -16 152 -82 l25 -50 6 -860 c5 -910 4 -884 51 -996 35 -82 114 -140 211
-154 l47 -7 235 227 c129 125 235 232 235 239 0 6 -13 26 -28 45 l-28 33 -114
-71 c-124 -78 -182 -101 -208 -84 -47 29 -47 15 -52 918 -5 847 -5 850 -27
904 -71 173 -209 249 -404 221 -270 -38 -527 -278 -741 -694 l-63 -121 -6 260
c-6 265 -13 316 -55 397 -61 119 -204 181 -364 158 -166 -24 -338 -130 -486
-300 -78 -90 -192 -264 -259 -395 -32 -60 -61 -114 -66 -120 -5 -5 -9 105 -9
273 0 287 -7 356 -40 422 -34 66 -108 112 -197 123 -36 4 -49 1 -80 -23z"/>
<path d="M17252 11969 c-114 -14 -189 -36 -297 -89 -334 -164 -536 -544 -574
-1077 -40 -558 195 -1071 558 -1218 221 -90 533 -34 757 136 81 61 246 212
279 255 l23 30 -31 37 -32 38 -95 -77 c-187 -152 -284 -204 -421 -225 -182
-28 -350 64 -485 266 -77 117 -167 346 -151 387 2 8 51 31 108 52 341 125 670
344 825 549 56 74 117 199 139 282 24 89 21 244 -4 326 -75 240 -303 365 -599
328z m73 -268 c107 -53 175 -151 196 -283 19 -112 -9 -255 -68 -358 -66 -114
-234 -250 -406 -330 -104 -48 -288 -113 -296 -104 -3 3 -6 105 -5 227 1 304
32 480 114 652 82 170 181 240 329 231 56 -4 89 -12 136 -35z"/>
<path d="M4305 8960 c-589 -30 -1057 -137 -1428 -327 -202 -103 -341 -205
-479 -352 -428 -455 -458 -1052 -70 -1423 143 -137 297 -206 478 -216 105 -5
223 13 282 44 15 7 32 14 37 14 6 0 32 19 57 43 40 35 47 46 42 69 -7 32 -10
33 -125 53 -257 45 -408 135 -485 290 -97 197 -23 412 221 644 275 260 641
392 1231 446 312 28 891 17 1334 -25 182 -18 564 -59 685 -74 587 -75 1215
-164 1735 -247 232 -36 774 -125 1640 -268 300 -50 662 -108 805 -131 143 -22
274 -42 290 -45 41 -7 527 -79 705 -105 80 -11 334 -47 565 -79 231 -33 506
-71 610 -86 105 -14 219 -30 255 -35 36 -5 118 -16 182 -25 65 -8 169 -22 230
-30 572 -77 1374 -161 1853 -195 598 -43 750 -52 1070 -70 1454 -80 2672 -35
3662 135 751 130 1431 352 1823 597 55 34 111 73 124 85 14 13 29 23 34 23 11
0 68 67 65 78 -1 4 3 12 8 18 15 19 -22 52 -61 55 -77 6 -163 -11 -615 -127
-350 -89 -482 -118 -716 -158 -564 -97 -1158 -136 -2084 -136 -767 0 -1436 32
-2325 110 -63 6 -221 19 -350 30 -129 11 -282 25 -340 30 -58 5 -211 19 -340
30 -976 84 -1526 153 -3480 435 -699 101 -1736 271 -2260 370 -41 8 -127 23
-190 34 -63 11 -194 34 -290 51 -1458 259 -2576 409 -3435 460 -247 15 -753
20 -950 10z"/>
</g>
</svg>
